# xmcd
#
# Track frame offsets: 
#        150
#        14295
#        26892
#        44654
#        63576
#
# Disc length: 1028 seconds
#
# Revision: 5
# Processed by: cddbd v1.5.2PL0 Copyright (c) Steve Scherf et al.
# Submitted via: ExactAudioCopyFreeDBPlugin 1.0
#
DISCID=42040205
DTITLE=AnnenMayKantereit - Wird schon irgendwie gehen [EP]
DYEAR=2015
DGENRE=Pop-Rock
TTITLE0=Jeden Morgen
TTITLE1=21, 22, 23
TTITLE2=3. Stock
TTITLE3=Nicht nichts
TTITLE4=Oft gefragt
EXTD=YEAR: 2015
EXTT0=
EXTT1=
EXTT2=
EXTT3=
EXTT4=
PLAYORDER=
